<?xml version="1.0" encoding="UTF-8"?>
<svg width="193px" height="55px" viewBox="0 0 193 55" version="1.1" xmlns="http://www.w3.org/2000/svg" xmlns:xlink="http://www.w3.org/1999/xlink">
    <!-- Generator: Sketch 50.2 (55047) - http://www.bohemiancoding.com/sketch -->
    <title>logo</title>
    <desc>Created with Sketch.</desc>
    <defs>
        <linearGradient x1="0%" y1="100%" x2="97.7104408%" y2="2.28955925%" id="linearGradient-1">
            <stop stop-color="#303395" offset="0%"></stop>
            <stop stop-color="#27F0F0" offset="100%"></stop>
        </linearGradient>
    </defs>
    <g id="Symbols" stroke="none" stroke-width="1" fill="none" fill-rule="evenodd">
        <g id="ui-elements-/-header-/-logo">
            <g id="logo">
                <g id="Group-3" transform="translate(0.000000, 0.286229)" fill="url(#linearGradient-1)">
                    <path d="M43.6576432,0.237041509 C41.8105811,0.237041509 40.313527,1.73882767 40.313527,3.59225157 C40.313527,5.44462893 41.8105811,6.94641509 43.6576432,6.94641509 C45.5047054,6.94641509 47.0017595,5.44462893 47.0017595,3.59225157 C47.0017595,1.73882767 45.5047054,0.237041509 43.6576432,0.237041509 Z M0,27.8238591 C0,41.2065006 10.8147811,52.0554667 24.1552541,52.0554667 C26.4112676,52.0554667 28.5759973,51.7027824 30.6431838,51.115673 L33.3999541,54.4201258 L46.7362541,54.4201258 L28.9823405,33.1366239 L34.0645,33.1366239 L42.6363081,43.4120855 C46.1729027,39.1976654 48.3105081,33.7635019 48.3105081,27.8238591 C48.3105081,14.4406943 37.4962486,3.5917283 24.1552541,3.5917283 C10.8147811,3.5917283 0,14.4406943 0,27.8238591 Z" id="Fill-1"></path>
                </g>
                <g id="Group-14" transform="translate(61.000000, 13.286229)" fill="#FFFFFF">
                    <path d="M59.1431259,23.1266435 C60.4091016,21.8959114 61.041307,20.3098787 61.041307,18.3669756 C61.041307,16.425119 60.4091016,14.8380397 59.1431259,13.6078309 C57.8787151,12.3776221 56.4066989,11.7627794 54.7296854,11.7627794 C52.9217449,11.7627794 51.4231259,12.3645404 50.2369584,13.5691089 C49.0476611,14.7736775 48.4545773,16.3733152 48.4545773,18.3669756 C48.4545773,20.3616825 49.0476611,21.960797 50.2369584,23.1653655 C51.4231259,24.3694108 52.9217449,24.9722184 54.7296854,24.9722184 C56.4066989,24.9722184 57.8787151,24.3568523 59.1431259,23.1266435 Z M65.0692692,28.0024775 L61.041307,28.0024775 L61.041307,25.7874737 C59.285007,27.6272926 56.9627476,28.5456322 54.0693124,28.5456322 C51.4617259,28.5456322 49.2229259,27.5948498 47.3508259,25.6906687 C45.4787259,23.7875341 44.5445016,21.3464775 44.5445016,18.3669756 C44.5445016,15.4146838 45.485507,12.9799064 47.3711692,11.0631668 C49.2542232,9.14695044 51.487807,8.18831899 54.0693124,8.18831899 C56.9627476,8.18831899 59.285007,9.10822843 61.041307,10.9464775 L61.041307,8.73199698 L65.0692692,8.73199698 L65.0692692,28.0024775 Z" id="Fill-4"></path>
                    <polygon id="Fill-6" points="79.5046781 28.0023728 75.2070376 28.0023728 66.9565484 8.69317031 71.3334754 8.69317031 77.3743754 23.1846219 83.4168403 8.69317031 87.7937673 8.69317031"></polygon>
                    <path d="M89.8081135,28.0024252 L93.8365973,28.0024252 L93.8365973,8.73194465 L89.8081135,8.73194465 L89.8081135,28.0024252 Z M93.6430757,1.15603522 C94.1328784,1.64895597 94.3785622,2.24391447 94.3785622,2.94352704 C94.3785622,3.6682566 94.1407027,4.26478491 93.6613324,4.7304956 C93.1840486,5.19725283 92.5706216,5.43010818 91.8226162,5.43010818 C91.0740892,5.43010818 90.4549243,5.19725283 89.9630351,4.7304956 C89.4727108,4.26478491 89.2275486,3.6682566 89.2275486,2.94352704 C89.2275486,2.24391447 89.4727108,1.64895597 89.9630351,1.15603522 C90.4549243,0.664161006 91.0740892,0.41874717 91.8226162,0.41874717 C92.5445405,0.41874717 93.1527514,0.664161006 93.6430757,1.15603522 Z" id="Fill-8"></path>
                    <path d="M20.2697962,22.3125917 C19.2364638,23.2126169 18.0184773,23.8844961 16.6700854,24.2806118 C15.8088881,24.5328282 14.9169151,24.7107401 13.9748665,24.7107401 C8.64598,24.7107401 4.32643135,20.3775376 4.32643135,15.0318068 C4.32643135,9.68607597 8.64598,5.35235019 13.9748665,5.35235019 C19.3032314,5.35235019 23.6233016,9.68607597 23.6233016,15.0318068 C23.6233016,16.9014521 23.0557773,18.6151628 22.1314638,20.0850294 L24.7432232,23.236164 C26.4802232,20.9547049 27.5349422,18.1248584 27.5349422,15.0318068 C27.5349422,7.51921308 21.4637881,1.42886843 13.9748665,1.42886843 C6.48594486,1.42886843 0.414790811,7.51921308 0.414790811,15.0318068 C0.414790811,22.5444005 6.48594486,28.6347452 13.9748665,28.6347452 C15.8913043,28.6347452 17.7122854,28.2307804 19.3653043,27.5112835 L21.2092368,29.7221011 L26.4510124,29.7221011 L20.2697962,22.3125917 Z" id="Fill-10"></path>
                    <path d="M42.6570138,8.49908931 C39.5335435,8.49908931 37.0933976,9.9490717 35.3376192,12.8506063 L35.3376192,8.73194465 L31.3091354,8.73194465 L31.3091354,28.0024252 L32.8051462,28.0024252 L35.3376192,28.0024252 L35.3376192,21.2040956 L35.3376192,19.8053937 C35.3376192,18.4501233 35.7304003,17.1968906 36.3709516,16.1090113 C36.3845138,16.0833711 36.3985976,16.0593006 36.4116381,16.0341836 C36.5128327,15.8677836 36.6119408,15.7029535 36.7256543,15.5454491 C37.841403,13.995522 39.5418895,12.9039799 41.5052732,12.5973434 C41.8683219,12.5549585 42.2240678,12.5010616 42.6184138,12.5010616 L42.6570138,8.49908931 Z" id="Fill-11"></path>
                    <path d="M108.02627,24.6448081 C107.712776,24.7018445 107.398759,24.7384735 107.081614,24.7384735 C106.0994,24.7384735 105.325314,24.4344533 104.757789,23.8264131 C104.1887,23.216803 103.904938,22.3298596 103.904938,21.1640131 L103.904938,12.0732357 L108.150416,12.0732357 L108.150416,8.73163069 L103.904938,8.73163069 L103.904938,2.74960302 L99.8780189,2.74960302 L99.8780189,8.73163069 L96.0044568,8.73163069 L96.0044568,12.0732357 L99.8780189,12.0732357 L99.8780189,21.436637 C99.8780189,23.7678068 100.497184,25.5354143 101.735514,26.7394596 C102.975408,27.9440282 104.667549,28.5457892 106.808805,28.5457892 C107.536468,28.5457892 108.279257,28.4264835 109.03613,28.2020005 L108.02627,24.6448081 Z" id="Fill-12"></path>
                    <polygon id="Fill-13" points="116.25506 32.9415225 120.747787 32.9415225 131.511971 8.69317031 127.019244 8.69317031 120.860457 22.6022219 114.858157 8.69317031 110.36543 8.69317031 118.654519 27.5361389"></polygon>
                </g>
            </g>
        </g>
    </g>
</svg>