<?xml version="1.0" encoding="UTF-8"?>
<svg width="179px" height="51px" viewBox="0 0 179 51" version="1.1" xmlns="http://www.w3.org/2000/svg" xmlns:xlink="http://www.w3.org/1999/xlink">
    <!-- Generator: Sketch 50.2 (55047) - http://www.bohemiancoding.com/sketch -->
    <title>img_logo_qravity_footer</title>
    <desc>Created with Sketch.</desc>
    <defs></defs>
    <g id="Symbols" stroke="none" stroke-width="1" fill="none" fill-rule="evenodd">
        <g id="ui-/-elements-/-footer" transform="translate(-135.000000, -41.000000)" fill="#2C4C65">
            <g id="0_footer_section">
                <g id="ui-elements-/-header-/-logo-footer" transform="translate(135.000000, 41.000000)">
                    <path d="M40.5392402,0.48589398 C38.824111,0.48589398 37.4339894,1.8804097 37.4339894,3.60144618 C37.4339894,5.32151087 38.824111,6.71602659 40.5392402,6.71602659 C42.2543693,6.71602659 43.6444909,5.32151087 43.6444909,3.60144618 C43.6444909,1.8804097 42.2543693,0.48589398 40.5392402,0.48589398 Z M0,26.1022246 C0,38.5289632 10.0422967,48.6030031 22.4298788,48.6030031 C24.5247485,48.6030031 26.5348546,48.2755105 28.4543849,47.7303375 L31.0142431,50.798758 L43.3979502,50.798758 L26.9121734,31.0355062 L31.6313214,31.0355062 L39.5908575,40.5770063 C42.8748382,36.6636162 44.8597575,31.6176072 44.8597575,26.1022246 C44.8597575,13.6750002 34.8179452,3.60096029 22.4298788,3.60096029 C10.0422967,3.60096029 0,13.6750002 0,26.1022246 Z M111.561474,33.811953 C112.737023,32.6691304 113.324071,31.1963857 113.324071,29.3922613 C113.324071,27.5891088 112.737023,26.1153923 111.561474,24.9730556 C110.387378,23.8307188 109.020506,23.2597934 107.463279,23.2597934 C105.784477,23.2597934 104.392903,23.8185715 103.291461,24.9370994 C102.187114,26.0556274 101.636393,27.5410053 101.636393,29.3922613 C101.636393,31.2444892 102.187114,32.7293812 103.291461,33.8479091 C104.392903,34.9659512 105.784477,35.5257011 107.463279,35.5257011 C109.020506,35.5257011 110.387378,34.9542897 111.561474,33.811953 Z M117.064321,38.3395131 L113.324071,38.3395131 L113.324071,36.2827239 C111.693221,37.9911271 109.536837,38.8438711 106.850076,38.8438711 C104.428746,38.8438711 102.34986,37.9610017 100.611481,36.1928335 C98.8731027,34.4256371 98.0056086,32.1589417 98.0056086,29.3922613 C98.0056086,26.6508475 98.8793994,24.3899828 100.630371,22.6101532 C102.378922,20.8308094 104.452964,19.9406516 106.850076,19.9406516 C109.536837,19.9406516 111.693221,20.7948533 113.324071,22.5017988 L113.324071,20.4454955 L117.064321,20.4454955 L117.064321,38.3395131 Z M130.46863,38.3394159 L126.477963,38.3394159 L118.816795,20.4094422 L122.881084,20.4094422 L128.490491,33.86579 L134.101352,20.4094422 L138.165641,20.4094422 L130.46863,38.3394159 Z M140.036105,38.3394645 L143.77684,38.3394645 L143.77684,20.4454469 L140.036105,20.4454469 L140.036105,38.3394645 Z M143.597142,13.4106739 C144.051958,13.868386 144.280093,14.4208474 144.280093,15.0704877 C144.280093,15.7434509 144.059224,16.29737 143.614094,16.7298156 C143.170902,17.1632331 142.601292,17.3794559 141.906715,17.3794559 C141.211654,17.3794559 140.636715,17.1632331 140.179961,16.7298156 C139.72466,16.29737 139.497009,15.7434509 139.497009,15.0704877 C139.497009,14.4208474 139.72466,13.868386 140.179961,13.4106739 C140.636715,12.9539335 141.211654,12.7260492 141.906715,12.7260492 C142.577073,12.7260492 143.141841,12.9539335 143.597142,13.4106739 Z M75.4648108,33.0560477 C74.5052878,33.8917854 73.3743003,34.5156732 72.1222222,34.883495 C71.322539,35.1176959 70.4942783,35.2828998 69.6195189,35.2828998 C64.6712671,35.2828998 60.6602577,31.2592118 60.6602577,26.2953189 C60.6602577,21.331426 64.6712671,17.307252 69.6195189,17.307252 C74.5672863,17.307252 78.5787801,21.331426 78.5787801,26.2953189 C78.5787801,28.0314181 78.0517932,29.6227209 77.1935021,30.9875971 L79.6187073,33.9136506 C81.2316359,31.7951528 82.2110177,29.1674382 82.2110177,26.2953189 C82.2110177,19.319339 76.5735175,13.664019 69.6195189,13.664019 C62.6655202,13.664019 57.02802,19.319339 57.02802,26.2953189 C57.02802,33.2712988 62.6655202,38.9266188 69.6195189,38.9266188 C71.3990683,38.9266188 73.0899793,38.5515086 74.6249254,37.8834044 L76.3371484,39.9363065 L81.2045115,39.9363065 L75.4648108,33.0560477 Z M96.2529414,20.2292241 C93.3525761,20.2292241 91.0867263,21.5756363 89.4563607,24.2699184 L89.4563607,20.4454469 L85.7156257,20.4454469 L85.7156257,38.3394645 L87.1047786,38.3394645 L89.4563607,38.3394645 L89.4563607,32.0267299 L89.4563607,30.7279353 C89.4563607,29.4694699 89.821086,28.3057538 90.4158836,27.2955802 C90.4284771,27.2717714 90.4415549,27.2494203 90.453664,27.2260974 C90.5476304,27.0715831 90.6396593,26.9185265 90.7452504,26.7722724 C91.7813028,25.3330544 93.3603259,24.3194796 95.183468,24.0347457 C95.5205846,23.9953883 95.8509201,23.9453412 96.2170985,23.9453412 L96.2529414,20.2292241 Z M156.952965,35.2216772 C156.661863,35.2746396 156.370277,35.3086522 156.075784,35.3086522 C155.163729,35.3086522 154.444934,35.0263478 153.917947,34.461739 C153.389507,33.8956725 153.126014,33.0720822 153.126014,31.9895104 L153.126014,23.5480743 L157.068244,23.5480743 L157.068244,20.4451554 L153.126014,20.4451554 L153.126014,14.8904154 L149.386732,14.8904154 L149.386732,20.4451554 L145.789853,20.4451554 L145.789853,23.5480743 L149.386732,23.5480743 L149.386732,32.2426612 C149.386732,34.4073189 149.961671,36.0486688 151.111548,37.1667108 C152.262879,38.2852387 153.834152,38.8440168 155.822462,38.8440168 C156.498148,38.8440168 157.187881,38.733233 157.890692,38.5247845 L156.952965,35.2216772 Z M164.593984,42.9257692 L168.765802,42.9257692 L178.761116,20.4094422 L174.589298,20.4094422 L168.870425,33.32499 L163.29686,20.4094422 L159.125042,20.4094422 L166.822054,37.9064844 L164.593984,42.9257692 Z" id="Combined-Shape"></path>
                </g>
            </g>
        </g>
    </g>
</svg>